<?xml version="1.0" encoding="UTF-8" standalone="no"?>
<!DOCTYPE svg PUBLIC "-//W3C//DTD SVG 1.1//EN"
 "http://www.w3.org/Graphics/SVG/1.1/DTD/svg11.dtd">
<!-- Generated by graphviz version 2.43.0 (0)
 -->
<!-- Title: snakemake_dag Pages: 1 -->
<svg width="127pt" height="188pt"
 viewBox="0.00 0.00 127.00 188.00" xmlns="http://www.w3.org/2000/svg" xmlns:xlink="http://www.w3.org/1999/xlink">
<g id="graph0" class="graph" transform="scale(1 1) rotate(0) translate(4 184)">
<title>snakemake_dag</title>
<polygon fill="white" stroke="transparent" points="-4,4 -4,-184 123,-184 123,4 -4,4"/>
<!-- 0 -->
<g id="node1" class="node">
<title>0</title>
<path fill="none" stroke="#d85656" stroke-width="2" d="M74.5,-36C74.5,-36 44.5,-36 44.5,-36 38.5,-36 32.5,-30 32.5,-24 32.5,-24 32.5,-12 32.5,-12 32.5,-6 38.5,0 44.5,0 44.5,0 74.5,0 74.5,0 80.5,0 86.5,-6 86.5,-12 86.5,-12 86.5,-24 86.5,-24 86.5,-30 80.5,-36 74.5,-36"/>
<text text-anchor="middle" x="59.5" y="-15.5" font-family="sans" font-size="10.00">all</text>
</g>
<!-- 1 -->
<g id="node2" class="node">
<title>1</title>
<path fill="none" stroke="#56d8a9" stroke-width="2" d="M86,-108C86,-108 33,-108 33,-108 27,-108 21,-102 21,-96 21,-96 21,-84 21,-84 21,-78 27,-72 33,-72 33,-72 86,-72 86,-72 92,-72 98,-78 98,-84 98,-84 98,-96 98,-96 98,-102 92,-108 86,-108"/>
<text text-anchor="middle" x="59.5" y="-87.5" font-family="sans" font-size="10.00">wipe_fastq</text>
</g>
<!-- 1&#45;&gt;0 -->
<g id="edge1" class="edge">
<title>1&#45;&gt;0</title>
<path fill="none" stroke="grey" stroke-width="2" d="M59.5,-71.7C59.5,-63.98 59.5,-54.71 59.5,-46.11"/>
<polygon fill="grey" stroke="grey" stroke-width="2" points="63,-46.1 59.5,-36.1 56,-46.1 63,-46.1"/>
</g>
<!-- 2 -->
<g id="node3" class="node">
<title>2</title>
<path fill="none" stroke="#afd856" stroke-width="2" d="M107,-180C107,-180 12,-180 12,-180 6,-180 0,-174 0,-168 0,-168 0,-156 0,-156 0,-150 6,-144 12,-144 12,-144 107,-144 107,-144 113,-144 119,-150 119,-156 119,-156 119,-168 119,-168 119,-174 113,-180 107,-180"/>
<text text-anchor="middle" x="59.5" y="-165" font-family="sans" font-size="10.00">fix_gzrt</text>
<text text-anchor="middle" x="59.5" y="-154" font-family="sans" font-size="10.00">sample: sample_R1</text>
</g>
<!-- 2&#45;&gt;1 -->
<g id="edge2" class="edge">
<title>2&#45;&gt;1</title>
<path fill="none" stroke="grey" stroke-width="2" d="M59.5,-143.7C59.5,-135.98 59.5,-126.71 59.5,-118.11"/>
<polygon fill="grey" stroke="grey" stroke-width="2" points="63,-118.1 59.5,-108.1 56,-118.1 63,-118.1"/>
</g>
</g>
</svg>
