<?xml version="1.0" encoding="UTF-8" standalone="no"?>
<!DOCTYPE svg PUBLIC "-//W3C//DTD SVG 1.1//EN"
 "http://www.w3.org/Graphics/SVG/1.1/DTD/svg11.dtd">
<!-- Generated by graphviz version 2.43.0 (0)
 -->
<!-- Title: snakemake_dag Pages: 1 -->
<svg width="586pt" height="476pt"
 viewBox="0.00 0.00 586.00 476.00" xmlns="http://www.w3.org/2000/svg" xmlns:xlink="http://www.w3.org/1999/xlink">
<g id="graph0" class="graph" transform="scale(1 1) rotate(0) translate(4 472)">
<title>snakemake_dag</title>
<polygon fill="white" stroke="transparent" points="-4,4 -4,-472 582,-472 582,4 -4,4"/>
<!-- 0 -->
<g id="node1" class="node">
<title>0</title>
<path fill="none" stroke="#56d8d8" stroke-width="2" d="M278.5,-36C278.5,-36 248.5,-36 248.5,-36 242.5,-36 236.5,-30 236.5,-24 236.5,-24 236.5,-12 236.5,-12 236.5,-6 242.5,0 248.5,0 248.5,0 278.5,0 278.5,0 284.5,0 290.5,-6 290.5,-12 290.5,-12 290.5,-24 290.5,-24 290.5,-30 284.5,-36 278.5,-36"/>
<text text-anchor="middle" x="263.5" y="-15.5" font-family="sans" font-size="10.00">all</text>
</g>
<!-- 1 -->
<g id="node2" class="node">
<title>1</title>
<path fill="none" stroke="#569ad8" stroke-width="2" d="M308,-108C308,-108 219,-108 219,-108 213,-108 207,-102 207,-96 207,-96 207,-84 207,-84 207,-78 213,-72 219,-72 219,-72 308,-72 308,-72 314,-72 320,-78 320,-84 320,-84 320,-96 320,-96 320,-102 314,-108 308,-108"/>
<text text-anchor="middle" x="263.5" y="-87.5" font-family="sans" font-size="10.00">fix_interleaving</text>
</g>
<!-- 1&#45;&gt;0 -->
<g id="edge1" class="edge">
<title>1&#45;&gt;0</title>
<path fill="none" stroke="grey" stroke-width="2" d="M263.5,-71.7C263.5,-63.98 263.5,-54.71 263.5,-46.11"/>
<polygon fill="grey" stroke="grey" stroke-width="2" points="267,-46.1 263.5,-36.1 260,-46.1 267,-46.1"/>
</g>
<!-- 2 -->
<g id="node3" class="node">
<title>2</title>
<path fill="none" stroke="#d6d856" stroke-width="2" d="M302,-180C302,-180 225,-180 225,-180 219,-180 213,-174 213,-168 213,-168 213,-156 213,-156 213,-150 219,-144 225,-144 225,-144 302,-144 302,-144 308,-144 314,-150 314,-156 314,-156 314,-168 314,-168 314,-174 308,-180 302,-180"/>
<text text-anchor="middle" x="263.5" y="-165" font-family="sans" font-size="10.00">drop_unpaired</text>
<text text-anchor="middle" x="263.5" y="-154" font-family="sans" font-size="10.00">sample: sample</text>
</g>
<!-- 2&#45;&gt;1 -->
<g id="edge4" class="edge">
<title>2&#45;&gt;1</title>
<path fill="none" stroke="grey" stroke-width="2" d="M263.5,-143.7C263.5,-135.98 263.5,-126.71 263.5,-118.11"/>
<polygon fill="grey" stroke="grey" stroke-width="2" points="267,-118.1 263.5,-108.1 260,-118.1 267,-118.1"/>
</g>
<!-- 3 -->
<g id="node4" class="node">
<title>3</title>
<path fill="none" stroke="#97d856" stroke-width="2" d="M257,-252C257,-252 192,-252 192,-252 186,-252 180,-246 180,-240 180,-240 180,-228 180,-228 180,-222 186,-216 192,-216 192,-216 257,-216 257,-216 263,-216 269,-222 269,-228 269,-228 269,-240 269,-240 269,-246 263,-252 257,-252"/>
<text text-anchor="middle" x="224.5" y="-231.5" font-family="sans" font-size="10.00">gather_fastq</text>
</g>
<!-- 3&#45;&gt;2 -->
<g id="edge5" class="edge">
<title>3&#45;&gt;2</title>
<path fill="none" stroke="grey" stroke-width="2" d="M234.14,-215.7C238.63,-207.64 244.06,-197.89 249.02,-188.98"/>
<polygon fill="grey" stroke="grey" stroke-width="2" points="252.16,-190.54 253.97,-180.1 246.05,-187.14 252.16,-190.54"/>
</g>
<!-- 4 -->
<g id="node5" class="node">
<title>4</title>
<path fill="none" stroke="#d89556" stroke-width="2" d="M119,-324C119,-324 12,-324 12,-324 6,-324 0,-318 0,-312 0,-312 0,-300 0,-300 0,-294 6,-288 12,-288 12,-288 119,-288 119,-288 125,-288 131,-294 131,-300 131,-300 131,-312 131,-312 131,-318 125,-324 119,-324"/>
<text text-anchor="middle" x="65.5" y="-309" font-family="sans" font-size="10.00">wipe_fastq_parallel</text>
<text text-anchor="middle" x="65.5" y="-298" font-family="sans" font-size="10.00">scatteritem: 1&#45;of&#45;2</text>
</g>
<!-- 4&#45;&gt;3 -->
<g id="edge7" class="edge">
<title>4&#45;&gt;3</title>
<path fill="none" stroke="grey" stroke-width="2" d="M104.4,-287.88C126.13,-278.31 153.4,-266.3 176.46,-256.15"/>
<polygon fill="grey" stroke="grey" stroke-width="2" points="177.99,-259.3 185.73,-252.07 175.17,-252.89 177.99,-259.3"/>
</g>
<!-- 13 -->
<g id="node14" class="node">
<title>13</title>
<path fill="none" stroke="#d85656" stroke-width="2" d="M150,-252C150,-252 73,-252 73,-252 67,-252 61,-246 61,-240 61,-240 61,-228 61,-228 61,-222 67,-216 73,-216 73,-216 150,-216 150,-216 156,-216 162,-222 162,-228 162,-228 162,-240 162,-240 162,-246 156,-252 150,-252"/>
<text text-anchor="middle" x="111.5" y="-231.5" font-family="sans" font-size="10.00">gather_summary</text>
</g>
<!-- 4&#45;&gt;13 -->
<g id="edge17" class="edge">
<title>4&#45;&gt;13</title>
<path fill="none" stroke="grey" stroke-width="2" d="M76.87,-287.7C82.22,-279.56 88.7,-269.69 94.61,-260.7"/>
<polygon fill="grey" stroke="grey" stroke-width="2" points="97.69,-262.38 100.26,-252.1 91.84,-258.54 97.69,-262.38"/>
</g>
<!-- 5 -->
<g id="node6" class="node">
<title>5</title>
<path fill="none" stroke="#56d89a" stroke-width="2" d="M170,-396C170,-396 111,-396 111,-396 105,-396 99,-390 99,-384 99,-384 99,-372 99,-372 99,-366 105,-360 111,-360 111,-360 170,-360 170,-360 176,-360 182,-366 182,-372 182,-372 182,-384 182,-384 182,-390 176,-396 170,-396"/>
<text text-anchor="middle" x="140.5" y="-375.5" font-family="sans" font-size="10.00">split_fastq</text>
</g>
<!-- 5&#45;&gt;4 -->
<g id="edge9" class="edge">
<title>5&#45;&gt;4</title>
<path fill="none" stroke="grey" stroke-width="2" d="M121.96,-359.7C112.7,-351.05 101.34,-340.45 91.24,-331.03"/>
<polygon fill="grey" stroke="grey" stroke-width="2" points="93.52,-328.37 83.83,-324.1 88.75,-333.49 93.52,-328.37"/>
</g>
<!-- 7 -->
<g id="node8" class="node">
<title>7</title>
<path fill="none" stroke="#d89556" stroke-width="2" d="M268,-324C268,-324 161,-324 161,-324 155,-324 149,-318 149,-312 149,-312 149,-300 149,-300 149,-294 155,-288 161,-288 161,-288 268,-288 268,-288 274,-288 280,-294 280,-300 280,-300 280,-312 280,-312 280,-318 274,-324 268,-324"/>
<text text-anchor="middle" x="214.5" y="-309" font-family="sans" font-size="10.00">wipe_fastq_parallel</text>
<text text-anchor="middle" x="214.5" y="-298" font-family="sans" font-size="10.00">scatteritem: 2&#45;of&#45;2</text>
</g>
<!-- 5&#45;&gt;7 -->
<g id="edge11" class="edge">
<title>5&#45;&gt;7</title>
<path fill="none" stroke="grey" stroke-width="2" d="M158.79,-359.7C167.93,-351.05 179.14,-340.45 189.1,-331.03"/>
<polygon fill="grey" stroke="grey" stroke-width="2" points="191.56,-333.52 196.42,-324.1 186.75,-328.43 191.56,-333.52"/>
</g>
<!-- 6 -->
<g id="node7" class="node">
<title>6</title>
<path fill="none" stroke="#59d856" stroke-width="2" d="M191,-468C191,-468 90,-468 90,-468 84,-468 78,-462 78,-456 78,-456 78,-444 78,-444 78,-438 84,-432 90,-432 90,-432 191,-432 191,-432 197,-432 203,-438 203,-444 203,-444 203,-456 203,-456 203,-462 197,-468 191,-468"/>
<text text-anchor="middle" x="140.5" y="-453" font-family="sans" font-size="10.00">fix_gzrt</text>
<text text-anchor="middle" x="140.5" y="-442" font-family="sans" font-size="10.00">sampleR: sample_R1</text>
</g>
<!-- 6&#45;&gt;5 -->
<g id="edge10" class="edge">
<title>6&#45;&gt;5</title>
<path fill="none" stroke="grey" stroke-width="2" d="M140.5,-431.7C140.5,-423.98 140.5,-414.71 140.5,-406.11"/>
<polygon fill="grey" stroke="grey" stroke-width="2" points="144,-406.1 140.5,-396.1 137,-406.1 144,-406.1"/>
</g>
<!-- 7&#45;&gt;3 -->
<g id="edge8" class="edge">
<title>7&#45;&gt;3</title>
<path fill="none" stroke="grey" stroke-width="2" d="M216.97,-287.7C218.07,-279.98 219.4,-270.71 220.63,-262.11"/>
<polygon fill="grey" stroke="grey" stroke-width="2" points="224.11,-262.5 222.06,-252.1 217.18,-261.51 224.11,-262.5"/>
</g>
<!-- 7&#45;&gt;13 -->
<g id="edge18" class="edge">
<title>7&#45;&gt;13</title>
<path fill="none" stroke="grey" stroke-width="2" d="M189.3,-287.88C176.09,-278.89 159.71,-267.76 145.39,-258.03"/>
<polygon fill="grey" stroke="grey" stroke-width="2" points="147.03,-254.92 136.79,-252.19 143.1,-260.71 147.03,-254.92"/>
</g>
<!-- 8 -->
<g id="node9" class="node">
<title>8</title>
<path fill="none" stroke="#97d856" stroke-width="2" d="M385,-252C385,-252 320,-252 320,-252 314,-252 308,-246 308,-240 308,-240 308,-228 308,-228 308,-222 314,-216 320,-216 320,-216 385,-216 385,-216 391,-216 397,-222 397,-228 397,-228 397,-240 397,-240 397,-246 391,-252 385,-252"/>
<text text-anchor="middle" x="352.5" y="-231.5" font-family="sans" font-size="10.00">gather_fastq</text>
</g>
<!-- 8&#45;&gt;2 -->
<g id="edge6" class="edge">
<title>8&#45;&gt;2</title>
<path fill="none" stroke="grey" stroke-width="2" d="M330.5,-215.7C319.29,-206.88 305.5,-196.03 293.35,-186.47"/>
<polygon fill="grey" stroke="grey" stroke-width="2" points="295.27,-183.54 285.25,-180.1 290.94,-189.04 295.27,-183.54"/>
</g>
<!-- 9 -->
<g id="node10" class="node">
<title>9</title>
<path fill="none" stroke="#d89556" stroke-width="2" d="M417,-324C417,-324 310,-324 310,-324 304,-324 298,-318 298,-312 298,-312 298,-300 298,-300 298,-294 304,-288 310,-288 310,-288 417,-288 417,-288 423,-288 429,-294 429,-300 429,-300 429,-312 429,-312 429,-318 423,-324 417,-324"/>
<text text-anchor="middle" x="363.5" y="-309" font-family="sans" font-size="10.00">wipe_fastq_parallel</text>
<text text-anchor="middle" x="363.5" y="-298" font-family="sans" font-size="10.00">scatteritem: 1&#45;of&#45;2</text>
</g>
<!-- 9&#45;&gt;8 -->
<g id="edge12" class="edge">
<title>9&#45;&gt;8</title>
<path fill="none" stroke="grey" stroke-width="2" d="M360.78,-287.7C359.57,-279.98 358.11,-270.71 356.76,-262.11"/>
<polygon fill="grey" stroke="grey" stroke-width="2" points="360.2,-261.44 355.19,-252.1 353.28,-262.53 360.2,-261.44"/>
</g>
<!-- 14 -->
<g id="node15" class="node">
<title>14</title>
<path fill="none" stroke="#d85656" stroke-width="2" d="M504,-252C504,-252 427,-252 427,-252 421,-252 415,-246 415,-240 415,-240 415,-228 415,-228 415,-222 421,-216 427,-216 427,-216 504,-216 504,-216 510,-216 516,-222 516,-228 516,-228 516,-240 516,-240 516,-246 510,-252 504,-252"/>
<text text-anchor="middle" x="465.5" y="-231.5" font-family="sans" font-size="10.00">gather_summary</text>
</g>
<!-- 9&#45;&gt;14 -->
<g id="edge19" class="edge">
<title>9&#45;&gt;14</title>
<path fill="none" stroke="grey" stroke-width="2" d="M388.45,-287.88C401.54,-278.89 417.76,-267.76 431.94,-258.03"/>
<polygon fill="grey" stroke="grey" stroke-width="2" points="434.19,-260.73 440.45,-252.19 430.23,-254.96 434.19,-260.73"/>
</g>
<!-- 10 -->
<g id="node11" class="node">
<title>10</title>
<path fill="none" stroke="#56d89a" stroke-width="2" d="M467,-396C467,-396 408,-396 408,-396 402,-396 396,-390 396,-384 396,-384 396,-372 396,-372 396,-366 402,-360 408,-360 408,-360 467,-360 467,-360 473,-360 479,-366 479,-372 479,-372 479,-384 479,-384 479,-390 473,-396 467,-396"/>
<text text-anchor="middle" x="437.5" y="-375.5" font-family="sans" font-size="10.00">split_fastq</text>
</g>
<!-- 10&#45;&gt;9 -->
<g id="edge14" class="edge">
<title>10&#45;&gt;9</title>
<path fill="none" stroke="grey" stroke-width="2" d="M419.21,-359.7C410.07,-351.05 398.86,-340.45 388.9,-331.03"/>
<polygon fill="grey" stroke="grey" stroke-width="2" points="391.25,-328.43 381.58,-324.1 386.44,-333.52 391.25,-328.43"/>
</g>
<!-- 12 -->
<g id="node13" class="node">
<title>12</title>
<path fill="none" stroke="#d89556" stroke-width="2" d="M566,-324C566,-324 459,-324 459,-324 453,-324 447,-318 447,-312 447,-312 447,-300 447,-300 447,-294 453,-288 459,-288 459,-288 566,-288 566,-288 572,-288 578,-294 578,-300 578,-300 578,-312 578,-312 578,-318 572,-324 566,-324"/>
<text text-anchor="middle" x="512.5" y="-309" font-family="sans" font-size="10.00">wipe_fastq_parallel</text>
<text text-anchor="middle" x="512.5" y="-298" font-family="sans" font-size="10.00">scatteritem: 2&#45;of&#45;2</text>
</g>
<!-- 10&#45;&gt;12 -->
<g id="edge16" class="edge">
<title>10&#45;&gt;12</title>
<path fill="none" stroke="grey" stroke-width="2" d="M456.04,-359.7C465.3,-351.05 476.66,-340.45 486.76,-331.03"/>
<polygon fill="grey" stroke="grey" stroke-width="2" points="489.25,-333.49 494.17,-324.1 484.48,-328.37 489.25,-333.49"/>
</g>
<!-- 11 -->
<g id="node12" class="node">
<title>11</title>
<path fill="none" stroke="#59d856" stroke-width="2" d="M488,-468C488,-468 387,-468 387,-468 381,-468 375,-462 375,-456 375,-456 375,-444 375,-444 375,-438 381,-432 387,-432 387,-432 488,-432 488,-432 494,-432 500,-438 500,-444 500,-444 500,-456 500,-456 500,-462 494,-468 488,-468"/>
<text text-anchor="middle" x="437.5" y="-453" font-family="sans" font-size="10.00">fix_gzrt</text>
<text text-anchor="middle" x="437.5" y="-442" font-family="sans" font-size="10.00">sampleR: sample_R2</text>
</g>
<!-- 11&#45;&gt;10 -->
<g id="edge15" class="edge">
<title>11&#45;&gt;10</title>
<path fill="none" stroke="grey" stroke-width="2" d="M437.5,-431.7C437.5,-423.98 437.5,-414.71 437.5,-406.11"/>
<polygon fill="grey" stroke="grey" stroke-width="2" points="441,-406.1 437.5,-396.1 434,-406.1 441,-406.1"/>
</g>
<!-- 12&#45;&gt;8 -->
<g id="edge13" class="edge">
<title>12&#45;&gt;8</title>
<path fill="none" stroke="grey" stroke-width="2" d="M473.36,-287.88C451.49,-278.31 424.04,-266.3 400.84,-256.15"/>
<polygon fill="grey" stroke="grey" stroke-width="2" points="402.08,-252.87 391.51,-252.07 399.27,-259.28 402.08,-252.87"/>
</g>
<!-- 12&#45;&gt;14 -->
<g id="edge20" class="edge">
<title>12&#45;&gt;14</title>
<path fill="none" stroke="grey" stroke-width="2" d="M500.88,-287.7C495.36,-279.47 488.65,-269.48 482.57,-260.42"/>
<polygon fill="grey" stroke="grey" stroke-width="2" points="485.46,-258.46 476.98,-252.1 479.65,-262.36 485.46,-258.46"/>
</g>
<!-- 13&#45;&gt;0 -->
<g id="edge2" class="edge">
<title>13&#45;&gt;0</title>
<path fill="none" stroke="grey" stroke-width="2" d="M118.04,-215.66C130.31,-184.58 159.06,-118.34 197.5,-72 206.62,-61 218.33,-50.72 229.35,-42.18"/>
<polygon fill="grey" stroke="grey" stroke-width="2" points="231.68,-44.81 237.59,-36.02 227.49,-39.21 231.68,-44.81"/>
</g>
<!-- 14&#45;&gt;0 -->
<g id="edge3" class="edge">
<title>14&#45;&gt;0</title>
<path fill="none" stroke="grey" stroke-width="2" d="M452.44,-215.66C429.12,-185.16 378.06,-120.53 328.5,-72 318.05,-61.77 305.8,-51.41 294.77,-42.6"/>
<polygon fill="grey" stroke="grey" stroke-width="2" points="296.64,-39.62 286.62,-36.19 292.32,-45.12 296.64,-39.62"/>
</g>
</g>
</svg>
