<?xml version="1.0" encoding="UTF-8" standalone="no"?>
<!DOCTYPE svg PUBLIC "-//W3C//DTD SVG 1.1//EN"
 "http://www.w3.org/Graphics/SVG/1.1/DTD/svg11.dtd">
<!-- Generated by graphviz version 2.43.0 (0)
 -->
<!-- Title: snakemake_dag Pages: 1 -->
<svg width="264pt" height="332pt"
 viewBox="0.00 0.00 264.00 332.00" xmlns="http://www.w3.org/2000/svg" xmlns:xlink="http://www.w3.org/1999/xlink">
<g id="graph0" class="graph" transform="scale(1 1) rotate(0) translate(4 328)">
<title>snakemake_dag</title>
<polygon fill="white" stroke="transparent" points="-4,4 -4,-328 260,-328 260,4 -4,4"/>
<!-- 0 -->
<g id="node1" class="node">
<title>0</title>
<path fill="none" stroke="#56c1d8" stroke-width="2" d="M142.5,-36C142.5,-36 112.5,-36 112.5,-36 106.5,-36 100.5,-30 100.5,-24 100.5,-24 100.5,-12 100.5,-12 100.5,-6 106.5,0 112.5,0 112.5,0 142.5,0 142.5,0 148.5,0 154.5,-6 154.5,-12 154.5,-12 154.5,-24 154.5,-24 154.5,-30 148.5,-36 142.5,-36"/>
<text text-anchor="middle" x="127.5" y="-15.5" font-family="sans" font-size="10.00">all</text>
</g>
<!-- 1 -->
<g id="node2" class="node">
<title>1</title>
<path fill="none" stroke="#d85656" stroke-width="2" d="M172,-108C172,-108 83,-108 83,-108 77,-108 71,-102 71,-96 71,-96 71,-84 71,-84 71,-78 77,-72 83,-72 83,-72 172,-72 172,-72 178,-72 184,-78 184,-84 184,-84 184,-96 184,-96 184,-102 178,-108 172,-108"/>
<text text-anchor="middle" x="127.5" y="-87.5" font-family="sans" font-size="10.00">fix_interleaving</text>
</g>
<!-- 1&#45;&gt;0 -->
<g id="edge1" class="edge">
<title>1&#45;&gt;0</title>
<path fill="none" stroke="grey" stroke-width="2" d="M127.5,-71.7C127.5,-63.98 127.5,-54.71 127.5,-46.11"/>
<polygon fill="grey" stroke="grey" stroke-width="2" points="131,-46.1 127.5,-36.1 124,-46.1 131,-46.1"/>
</g>
<!-- 2 -->
<g id="node3" class="node">
<title>2</title>
<path fill="none" stroke="#88d856" stroke-width="2" d="M166,-180C166,-180 89,-180 89,-180 83,-180 77,-174 77,-168 77,-168 77,-156 77,-156 77,-150 83,-144 89,-144 89,-144 166,-144 166,-144 172,-144 178,-150 178,-156 178,-156 178,-168 178,-168 178,-174 172,-180 166,-180"/>
<text text-anchor="middle" x="127.5" y="-165" font-family="sans" font-size="10.00">drop_unpaired</text>
<text text-anchor="middle" x="127.5" y="-154" font-family="sans" font-size="10.00">sample: sample</text>
</g>
<!-- 2&#45;&gt;1 -->
<g id="edge2" class="edge">
<title>2&#45;&gt;1</title>
<path fill="none" stroke="grey" stroke-width="2" d="M127.5,-143.7C127.5,-135.98 127.5,-126.71 127.5,-118.11"/>
<polygon fill="grey" stroke="grey" stroke-width="2" points="131,-118.1 127.5,-108.1 124,-118.1 131,-118.1"/>
</g>
<!-- 3 -->
<g id="node4" class="node">
<title>3</title>
<path fill="none" stroke="#d8bc56" stroke-width="2" d="M96,-252C96,-252 43,-252 43,-252 37,-252 31,-246 31,-240 31,-240 31,-228 31,-228 31,-222 37,-216 43,-216 43,-216 96,-216 96,-216 102,-216 108,-222 108,-228 108,-228 108,-240 108,-240 108,-246 102,-252 96,-252"/>
<text text-anchor="middle" x="69.5" y="-231.5" font-family="sans" font-size="10.00">wipe_fastq</text>
</g>
<!-- 3&#45;&gt;2 -->
<g id="edge3" class="edge">
<title>3&#45;&gt;2</title>
<path fill="none" stroke="grey" stroke-width="2" d="M83.84,-215.7C90.79,-207.3 99.27,-197.07 106.9,-187.86"/>
<polygon fill="grey" stroke="grey" stroke-width="2" points="109.64,-190.04 113.33,-180.1 104.25,-185.57 109.64,-190.04"/>
</g>
<!-- 4 -->
<g id="node5" class="node">
<title>4</title>
<path fill="none" stroke="#56d88a" stroke-width="2" d="M107,-324C107,-324 12,-324 12,-324 6,-324 0,-318 0,-312 0,-312 0,-300 0,-300 0,-294 6,-288 12,-288 12,-288 107,-288 107,-288 113,-288 119,-294 119,-300 119,-300 119,-312 119,-312 119,-318 113,-324 107,-324"/>
<text text-anchor="middle" x="59.5" y="-309" font-family="sans" font-size="10.00">fix_gzrt</text>
<text text-anchor="middle" x="59.5" y="-298" font-family="sans" font-size="10.00">sample: sample_R1</text>
</g>
<!-- 4&#45;&gt;3 -->
<g id="edge5" class="edge">
<title>4&#45;&gt;3</title>
<path fill="none" stroke="grey" stroke-width="2" d="M61.97,-287.7C63.07,-279.98 64.4,-270.71 65.63,-262.11"/>
<polygon fill="grey" stroke="grey" stroke-width="2" points="69.11,-262.5 67.06,-252.1 62.18,-261.51 69.11,-262.5"/>
</g>
<!-- 5 -->
<g id="node6" class="node">
<title>5</title>
<path fill="none" stroke="#d8bc56" stroke-width="2" d="M212,-252C212,-252 159,-252 159,-252 153,-252 147,-246 147,-240 147,-240 147,-228 147,-228 147,-222 153,-216 159,-216 159,-216 212,-216 212,-216 218,-216 224,-222 224,-228 224,-228 224,-240 224,-240 224,-246 218,-252 212,-252"/>
<text text-anchor="middle" x="185.5" y="-231.5" font-family="sans" font-size="10.00">wipe_fastq</text>
</g>
<!-- 5&#45;&gt;2 -->
<g id="edge4" class="edge">
<title>5&#45;&gt;2</title>
<path fill="none" stroke="grey" stroke-width="2" d="M171.16,-215.7C164.21,-207.3 155.73,-197.07 148.1,-187.86"/>
<polygon fill="grey" stroke="grey" stroke-width="2" points="150.75,-185.57 141.67,-180.1 145.36,-190.04 150.75,-185.57"/>
</g>
<!-- 6 -->
<g id="node7" class="node">
<title>6</title>
<path fill="none" stroke="#56d88a" stroke-width="2" d="M244,-324C244,-324 149,-324 149,-324 143,-324 137,-318 137,-312 137,-312 137,-300 137,-300 137,-294 143,-288 149,-288 149,-288 244,-288 244,-288 250,-288 256,-294 256,-300 256,-300 256,-312 256,-312 256,-318 250,-324 244,-324"/>
<text text-anchor="middle" x="196.5" y="-309" font-family="sans" font-size="10.00">fix_gzrt</text>
<text text-anchor="middle" x="196.5" y="-298" font-family="sans" font-size="10.00">sample: sample_R2</text>
</g>
<!-- 6&#45;&gt;5 -->
<g id="edge6" class="edge">
<title>6&#45;&gt;5</title>
<path fill="none" stroke="grey" stroke-width="2" d="M193.78,-287.7C192.57,-279.98 191.11,-270.71 189.76,-262.11"/>
<polygon fill="grey" stroke="grey" stroke-width="2" points="193.2,-261.44 188.19,-252.1 186.28,-262.53 193.2,-261.44"/>
</g>
</g>
</svg>
