<?xml version="1.0" encoding="UTF-8" standalone="no"?>
<!DOCTYPE svg PUBLIC "-//W3C//DTD SVG 1.1//EN"
 "http://www.w3.org/Graphics/SVG/1.1/DTD/svg11.dtd">
<!-- Generated by graphviz version 2.43.0 (0)
 -->
<!-- Title: snakemake_dag Pages: 1 -->
<svg width="586pt" height="332pt"
 viewBox="0.00 0.00 586.00 332.00" xmlns="http://www.w3.org/2000/svg" xmlns:xlink="http://www.w3.org/1999/xlink">
<g id="graph0" class="graph" transform="scale(1 1) rotate(0) translate(4 328)">
<title>snakemake_dag</title>
<polygon fill="white" stroke="transparent" points="-4,4 -4,-328 582,-328 582,4 -4,4"/>
<!-- 0 -->
<g id="node1" class="node">
<title>0</title>
<path fill="none" stroke="#d85656" stroke-width="2" d="M303.5,-36C303.5,-36 273.5,-36 273.5,-36 267.5,-36 261.5,-30 261.5,-24 261.5,-24 261.5,-12 261.5,-12 261.5,-6 267.5,0 273.5,0 273.5,0 303.5,0 303.5,0 309.5,0 315.5,-6 315.5,-12 315.5,-12 315.5,-24 315.5,-24 315.5,-30 309.5,-36 303.5,-36"/>
<text text-anchor="middle" x="288.5" y="-15.5" font-family="sans" font-size="10.00">all</text>
</g>
<!-- 1 -->
<g id="node2" class="node">
<title>1</title>
<path fill="none" stroke="#56d8a9" stroke-width="2" d="M265,-108C265,-108 200,-108 200,-108 194,-108 188,-102 188,-96 188,-96 188,-84 188,-84 188,-78 194,-72 200,-72 200,-72 265,-72 265,-72 271,-72 277,-78 277,-84 277,-84 277,-96 277,-96 277,-102 271,-108 265,-108"/>
<text text-anchor="middle" x="232.5" y="-87.5" font-family="sans" font-size="10.00">gather_fastq</text>
</g>
<!-- 1&#45;&gt;0 -->
<g id="edge1" class="edge">
<title>1&#45;&gt;0</title>
<path fill="none" stroke="grey" stroke-width="2" d="M246.34,-71.7C252.99,-63.39 261.08,-53.28 268.39,-44.14"/>
<polygon fill="grey" stroke="grey" stroke-width="2" points="271.3,-46.1 274.82,-36.1 265.84,-41.73 271.3,-46.1"/>
</g>
<!-- 2 -->
<g id="node3" class="node">
<title>2</title>
<path fill="none" stroke="#56a9d8" stroke-width="2" d="M417,-180C417,-180 310,-180 310,-180 304,-180 298,-174 298,-168 298,-168 298,-156 298,-156 298,-150 304,-144 310,-144 310,-144 417,-144 417,-144 423,-144 429,-150 429,-156 429,-156 429,-168 429,-168 429,-174 423,-180 417,-180"/>
<text text-anchor="middle" x="363.5" y="-165" font-family="sans" font-size="10.00">wipe_fastq_parallel</text>
<text text-anchor="middle" x="363.5" y="-154" font-family="sans" font-size="10.00">scatteritem: 1&#45;of&#45;4</text>
</g>
<!-- 2&#45;&gt;1 -->
<g id="edge3" class="edge">
<title>2&#45;&gt;1</title>
<path fill="none" stroke="grey" stroke-width="2" d="M331.45,-143.88C314.01,-134.55 292.23,-122.92 273.56,-112.94"/>
<polygon fill="grey" stroke="grey" stroke-width="2" points="275.14,-109.82 264.67,-108.19 271.84,-115.99 275.14,-109.82"/>
</g>
<!-- 8 -->
<g id="node9" class="node">
<title>8</title>
<path fill="none" stroke="#afd856" stroke-width="2" d="M384,-108C384,-108 307,-108 307,-108 301,-108 295,-102 295,-96 295,-96 295,-84 295,-84 295,-78 301,-72 307,-72 307,-72 384,-72 384,-72 390,-72 396,-78 396,-84 396,-84 396,-96 396,-96 396,-102 390,-108 384,-108"/>
<text text-anchor="middle" x="345.5" y="-87.5" font-family="sans" font-size="10.00">gather_summary</text>
</g>
<!-- 2&#45;&gt;8 -->
<g id="edge12" class="edge">
<title>2&#45;&gt;8</title>
<path fill="none" stroke="grey" stroke-width="2" d="M359.05,-143.7C357.05,-135.9 354.63,-126.51 352.4,-117.83"/>
<polygon fill="grey" stroke="grey" stroke-width="2" points="355.78,-116.92 349.9,-108.1 349,-118.66 355.78,-116.92"/>
</g>
<!-- 3 -->
<g id="node4" class="node">
<title>3</title>
<path fill="none" stroke="#d8ac56" stroke-width="2" d="M318,-252C318,-252 259,-252 259,-252 253,-252 247,-246 247,-240 247,-240 247,-228 247,-228 247,-222 253,-216 259,-216 259,-216 318,-216 318,-216 324,-216 330,-222 330,-228 330,-228 330,-240 330,-240 330,-246 324,-252 318,-252"/>
<text text-anchor="middle" x="288.5" y="-231.5" font-family="sans" font-size="10.00">split_fastq</text>
</g>
<!-- 3&#45;&gt;2 -->
<g id="edge7" class="edge">
<title>3&#45;&gt;2</title>
<path fill="none" stroke="grey" stroke-width="2" d="M307.04,-215.7C316.3,-207.05 327.66,-196.45 337.76,-187.03"/>
<polygon fill="grey" stroke="grey" stroke-width="2" points="340.25,-189.49 345.17,-180.1 335.48,-184.37 340.25,-189.49"/>
</g>
<!-- 5 -->
<g id="node6" class="node">
<title>5</title>
<path fill="none" stroke="#56a9d8" stroke-width="2" d="M566,-180C566,-180 459,-180 459,-180 453,-180 447,-174 447,-168 447,-168 447,-156 447,-156 447,-150 453,-144 459,-144 459,-144 566,-144 566,-144 572,-144 578,-150 578,-156 578,-156 578,-168 578,-168 578,-174 572,-180 566,-180"/>
<text text-anchor="middle" x="512.5" y="-165" font-family="sans" font-size="10.00">wipe_fastq_parallel</text>
<text text-anchor="middle" x="512.5" y="-154" font-family="sans" font-size="10.00">scatteritem: 2&#45;of&#45;4</text>
</g>
<!-- 3&#45;&gt;5 -->
<g id="edge9" class="edge">
<title>3&#45;&gt;5</title>
<path fill="none" stroke="grey" stroke-width="2" d="M330.11,-220C363.21,-209.65 410.1,-195 448.05,-183.14"/>
<polygon fill="grey" stroke="grey" stroke-width="2" points="449.5,-186.36 458,-180.03 447.41,-179.67 449.5,-186.36"/>
</g>
<!-- 6 -->
<g id="node7" class="node">
<title>6</title>
<path fill="none" stroke="#56a9d8" stroke-width="2" d="M119,-180C119,-180 12,-180 12,-180 6,-180 0,-174 0,-168 0,-168 0,-156 0,-156 0,-150 6,-144 12,-144 12,-144 119,-144 119,-144 125,-144 131,-150 131,-156 131,-156 131,-168 131,-168 131,-174 125,-180 119,-180"/>
<text text-anchor="middle" x="65.5" y="-165" font-family="sans" font-size="10.00">wipe_fastq_parallel</text>
<text text-anchor="middle" x="65.5" y="-154" font-family="sans" font-size="10.00">scatteritem: 3&#45;of&#45;4</text>
</g>
<!-- 3&#45;&gt;6 -->
<g id="edge10" class="edge">
<title>3&#45;&gt;6</title>
<path fill="none" stroke="grey" stroke-width="2" d="M246.82,-219.92C213.95,-209.6 167.55,-195.03 129.91,-183.22"/>
<polygon fill="grey" stroke="grey" stroke-width="2" points="130.63,-179.78 120.05,-180.12 128.54,-186.46 130.63,-179.78"/>
</g>
<!-- 7 -->
<g id="node8" class="node">
<title>7</title>
<path fill="none" stroke="#56a9d8" stroke-width="2" d="M268,-180C268,-180 161,-180 161,-180 155,-180 149,-174 149,-168 149,-168 149,-156 149,-156 149,-150 155,-144 161,-144 161,-144 268,-144 268,-144 274,-144 280,-150 280,-156 280,-156 280,-168 280,-168 280,-174 274,-180 268,-180"/>
<text text-anchor="middle" x="214.5" y="-165" font-family="sans" font-size="10.00">wipe_fastq_parallel</text>
<text text-anchor="middle" x="214.5" y="-154" font-family="sans" font-size="10.00">scatteritem: 4&#45;of&#45;4</text>
</g>
<!-- 3&#45;&gt;7 -->
<g id="edge11" class="edge">
<title>3&#45;&gt;7</title>
<path fill="none" stroke="grey" stroke-width="2" d="M270.21,-215.7C261.07,-207.05 249.86,-196.45 239.9,-187.03"/>
<polygon fill="grey" stroke="grey" stroke-width="2" points="242.25,-184.43 232.58,-180.1 237.44,-189.52 242.25,-184.43"/>
</g>
<!-- 4 -->
<g id="node5" class="node">
<title>4</title>
<path fill="none" stroke="#59d856" stroke-width="2" d="M336,-324C336,-324 241,-324 241,-324 235,-324 229,-318 229,-312 229,-312 229,-300 229,-300 229,-294 235,-288 241,-288 241,-288 336,-288 336,-288 342,-288 348,-294 348,-300 348,-300 348,-312 348,-312 348,-318 342,-324 336,-324"/>
<text text-anchor="middle" x="288.5" y="-309" font-family="sans" font-size="10.00">fix_gzrt</text>
<text text-anchor="middle" x="288.5" y="-298" font-family="sans" font-size="10.00">sample: sample_R1</text>
</g>
<!-- 4&#45;&gt;3 -->
<g id="edge8" class="edge">
<title>4&#45;&gt;3</title>
<path fill="none" stroke="grey" stroke-width="2" d="M288.5,-287.7C288.5,-279.98 288.5,-270.71 288.5,-262.11"/>
<polygon fill="grey" stroke="grey" stroke-width="2" points="292,-262.1 288.5,-252.1 285,-262.1 292,-262.1"/>
</g>
<!-- 5&#45;&gt;1 -->
<g id="edge4" class="edge">
<title>5&#45;&gt;1</title>
<path fill="none" stroke="grey" stroke-width="2" d="M446.95,-145.83C391.03,-132.87 316.04,-115.45 286.94,-108.16"/>
<polygon fill="grey" stroke="grey" stroke-width="2" points="287.8,-104.77 277.24,-105.63 286.04,-111.54 287.8,-104.77"/>
</g>
<!-- 5&#45;&gt;8 -->
<g id="edge13" class="edge">
<title>5&#45;&gt;8</title>
<path fill="none" stroke="grey" stroke-width="2" d="M471.65,-143.88C448.72,-134.26 419.92,-122.19 395.63,-112.01"/>
<polygon fill="grey" stroke="grey" stroke-width="2" points="396.8,-108.71 386.22,-108.07 394.09,-115.16 396.8,-108.71"/>
</g>
<!-- 6&#45;&gt;1 -->
<g id="edge5" class="edge">
<title>6&#45;&gt;1</title>
<path fill="none" stroke="grey" stroke-width="2" d="M106.35,-143.88C129.28,-134.26 158.08,-122.19 182.37,-112.01"/>
<polygon fill="grey" stroke="grey" stroke-width="2" points="183.91,-115.16 191.78,-108.07 181.2,-108.71 183.91,-115.16"/>
</g>
<!-- 6&#45;&gt;8 -->
<g id="edge14" class="edge">
<title>6&#45;&gt;8</title>
<path fill="none" stroke="grey" stroke-width="2" d="M131.13,-145.91C172.56,-136.21 227.42,-123.07 284.82,-108.13"/>
<polygon fill="grey" stroke="grey" stroke-width="2" points="286.01,-111.43 294.8,-105.52 284.24,-104.66 286.01,-111.43"/>
</g>
<!-- 7&#45;&gt;1 -->
<g id="edge6" class="edge">
<title>7&#45;&gt;1</title>
<path fill="none" stroke="grey" stroke-width="2" d="M218.95,-143.7C220.95,-135.9 223.37,-126.51 225.6,-117.83"/>
<polygon fill="grey" stroke="grey" stroke-width="2" points="229,-118.66 228.1,-108.1 222.22,-116.92 229,-118.66"/>
</g>
<!-- 7&#45;&gt;8 -->
<g id="edge15" class="edge">
<title>7&#45;&gt;8</title>
<path fill="none" stroke="grey" stroke-width="2" d="M246.55,-143.88C263.99,-134.55 285.77,-122.92 304.44,-112.94"/>
<polygon fill="grey" stroke="grey" stroke-width="2" points="306.16,-115.99 313.33,-108.19 302.86,-109.82 306.16,-115.99"/>
</g>
<!-- 8&#45;&gt;0 -->
<g id="edge2" class="edge">
<title>8&#45;&gt;0</title>
<path fill="none" stroke="grey" stroke-width="2" d="M331.41,-71.7C324.58,-63.3 316.24,-53.07 308.74,-43.86"/>
<polygon fill="grey" stroke="grey" stroke-width="2" points="311.46,-41.65 302.43,-36.1 306.03,-46.07 311.46,-41.65"/>
</g>
</g>
</svg>
